# xmcd
#
# Track frame offsets:
#	150
#	10347
#	29012
#	46374
#	65877
#	88549
#	109557
#	130920
#	154979
#	172106
#	187689
#	200663
#	219738
#	237958
#	261580
#
# Disc length: 3754 seconds
#
# Revision: 1
# Processed by: cddbd v1.5.1PL0 Copyright (c) Steve Scherf et al.
# Submitted via: EasyCDDAExtractor 7.1.3.1
#
DISCID=df0ea80f
DTITLE=Ozzy Osbourne - Gaumont Hall Ipswich 02-03-86
DYEAR=1986
DGENRE=Hard Rock
TTITLE0=Intro
TTITLE1=Bark At The Moon
TTITLE2=Suicide Solution
TTITLE3=Never Know Why
TTITLE4=Mr Crowley
TTITLE5=Shot In The Dark
TTITLE6=I Don't Know
TTITLE7=Killer Of Giants
TTITLE8=Jake E Lee Solo
TTITLE9=Thank God For The Bomb
TTITLE10=Secret Loser
TTITLE11=Drum Solo
TTITLE12=Iron Man
TTITLE13=Crazy Train
TTITLE14=Paranoid
EXTD=
EXTT0=
EXTT1=
EXTT2=
EXTT3=
EXTT4=
EXTT5=
EXTT6=
EXTT7=
EXTT8=
EXTT9=
EXTT10=
EXTT11=
EXTT12=
EXTT13=
EXTT14=
PLAYORDER=
